# xmcd
#
# Track frame offsets: 
#        150
#        12507
#        25599
#        42151
#        54456
#        72118
#        89979
#        104552
#        119344
#        130688
#        143909
#        156807
#        169015
#        181857
#        196214
#        211793
#        225778
#        240340
#        255623
#        267434
#
# Disc length: 3778 seconds
#
# Revision: 3
# Processed by: cddbd v1.5.2PL0 Copyright (c) Steve Scherf et al.
# Submitted via: ExactAudioCopyFreeDBPlugin 1.0
#
DISCID=0a0ec014
DTITLE=Crystal Gayle - 100 Hits Legends [CD 2)
DYEAR=2011
DGENRE=Country
TTITLE0=Don't It Make My Brown Eyes Blue
TTITLE1=Talking In Your Sleep
TTITLE2=When I Dream
TTITLE3=Baby, What About You
TTITLE4=Our Love Is On The Faultline
TTITLE5=Til I Gain Control Again
TTITLE6=Sound of Goodbye
TTITLE7=I Don't Wanna Lose Your Love
TTITLE8=The Woman In Me
TTITLE9=Turning Away
TTITLE10=True Love
TTITLE11=Lean On Me
TTITLE12=Me Against the Night
TTITLE13=You Never Gave Up on Me
TTITLE14=Long And Lasting Love
TTITLE15=Everything I Own
TTITLE16=He Is Beautiful to Me
TTITLE17=On Our Way To Love
TTITLE18=Victim or a Fool
TTITLE19=You Made a Fool of Me
EXTD=Disk 2 of 5
EXTT0=
EXTT1=
EXTT2=
EXTT3=
EXTT4=
EXTT5=
EXTT6=
EXTT7=
EXTT8=
EXTT9=
EXTT10=
EXTT11=
EXTT12=
EXTT13=
EXTT14=
EXTT15=
EXTT16=
EXTT17=
EXTT18=
EXTT19=
PLAYORDER=
